# Alias OBJ Model File
# Exported from SketchUp, (c) 2000-2012 Trimble Navigation Limited
# File units = meters

#mtllib cambada_base.mtl

g Mesh1 Model

#usemtl FrontColor
v 0 0.00170969 0.233
vt 0 0.0673107
vn 0 0 -1
v 0 0 0.233
vt 0 0
v -0.00120953 0.000842864 0.233
vt 0.0476193 0.0331836
f 1/1/1 2/2/1 3/3/1

vn 0 0 1
v 0.046409 -0.146938 0.233
vt 1.82713 -5.78496
f 2/2/2 4/4/2 1/1/2

v 0 -0.140828 0.233
vt 0 -5.54441
f 2/2/2 5/5/2 4/4/2

vt -0.0476193 0.0331836
f 3/6/2 5/5/2 2/2/2

v -0.046409 -0.146938 0.233
vt -1.82713 -5.78496
f 5/5/2 3/6/2 6/7/2

v 0 0.30345 0.233
vt 0 11.9468
f 7/8/2 6/7/2 3/6/2

v -0.0497557 0.30345 0.233
vt -1.95889 11.9468
f 8/9/2 6/7/2 7/8/2

v -0.0896553 -0.164851 0.233
vt -3.52974 -6.4902
f 8/9/2 9/10/2 6/7/2

v -0.126792 -0.193347 0.233
vt -4.9918 -7.61209
f 8/9/2 10/11/2 9/10/2

v -0.130017 -0.19755 0.233
vt -5.11878 -7.77757
f 8/9/2 11/12/2 10/11/2

v -0.161388 -0.19755 0.233
vt -6.35386 -7.77757
f 8/9/2 12/13/2 11/12/2

v -0.2505 -0.094216 0.233
vt -9.8622 -3.70929
f 12/13/2 8/9/2 13/14/2

vt 7.75563 9.17323
vn -0.892704 0.450643 -8.28836e-033
vt -9.78223 9.17323
v -0.0497557 0.30345 -3.10901e-016
vt -9.78223 -1.22402e-014
v -0.2505 -0.094216 -3.10901e-016
vt 7.75563 -1.22402e-014
f 13/15/3 8/16/3 14/17/3 15/18/3 

vt 1.95889 9.17323
vn 0 1 0
vt 0 9.17323
v 0 0.30345 -3.10901e-016
vt 0 -1.22402e-014
vt 1.95889 -1.22402e-014
f 8/19/4 7/20/4 16/21/4 14/22/4 

v 0.0507905 0.30345 0.233
vt -1.99963 9.17323
v 0.0507905 0.30345 -3.10901e-016
vt -1.99963 -1.22402e-014
f 7/20/4 17/23/4 18/24/4 16/21/4 

vt 1.99963 11.9468
f 7/8/2 4/4/2 17/25/2

f 1/1/2 4/4/2 7/8/2

f 7/8/2 3/6/2 1/1/2

vt 0.0392097 9.17323
vn 0.582518 -0.812818 0
vt -0.0193758 9.17323
v -0.00120953 0.000842864 -3.10901e-016
vt -0.0193758 -1.22402e-014
v 0 0.00170969 -3.10901e-016
vt 0.0392097 -1.22402e-014
f 1/26/5 3/27/5 19/28/5 20/29/5 

vt 0.058041 9.17323
vn 0.571727 0.820444 0
v 0 0 -3.10901e-016
vt 0.058041 -1.22402e-014
f 3/30/6 2/20/6 21/21/6 19/31/6 

vn -1 0 0
vt -0.0673107 9.17323
vt -0.0673107 -1.22402e-014
f 2/20/7 1/32/7 20/33/7 21/21/7 

v 0.2505 -0.0841059 -3.10901e-016
vt -9.8622 -3.31125
v 0.153684 -0.19755 -3.10901e-016
vt -6.05055 -7.77757
v 0.130017 -0.19755 -3.10901e-016
v 0.126792 -0.193347 -3.10901e-016
v 0.0896553 -0.164851 -3.10901e-016
v 0.046409 -0.146938 -3.10901e-016
v 0 -0.140828 -3.10901e-016
v -0.046409 -0.146938 -3.10901e-016
v -0.0896553 -0.164851 -3.10901e-016
vt 3.52974 -6.4902
v -0.126792 -0.193347 -3.10901e-016
vt 4.9918 -7.61209
v -0.130017 -0.19755 -3.10901e-016
vt 5.11878 -7.77757
v -0.161388 -0.19755 -3.10901e-016
vt 6.35386 -7.77757
vt 9.8622 -3.70929
vt 1.95889 11.9468
v 0 0.30345 -3.10901e-016
v 0 0.30345 -3.10901e-016
vt -1.99963 11.9468
f 22/34/1 23/35/1 24/12/1 25/11/1 26/10/1 27/7/1 28/5/1 29/4/1 30/36/1 31/37/1 32/38/1 33/39/1 15/40/1 14/41/1 16/8/1 20/1/1 19/3/1 21/2/1 34/8/1 35/8/1 18/42/1 

v 0.2505 -0.0841059 0.233
vt 3.88342 9.17323
vn 0.760653 -0.649158 0
v 0.153684 -0.19755 0.233
vt -1.98827 9.17323
vt -1.98827 -1.22402e-014
vt 3.88342 -1.22402e-014
f 36/43/8 37/44/8 23/45/8 22/46/8 

vt 9.8622 -3.31125
v 0.130017 -0.19755 0.233
vt 6.05055 -7.77757
f 36/47/2 38/38/2 37/48/2

v 0.126792 -0.193347 0.233
f 36/47/2 39/37/2 38/38/2

v 0.0896553 -0.164851 0.233
f 36/47/2 40/36/2 39/37/2

f 17/25/2 40/36/2 36/47/2

f 17/25/2 4/4/2 40/36/2

vt 5.74475 9.17323
vn -0.5 -0.866025 -1.17154e-032
vt 3.90185 9.17323
vn -0.258819 -0.965926 -1.74716e-032
vt 3.90185 -1.22402e-014
vt 5.74475 -1.22402e-014
f 40/49/9 4/50/10 27/51/10 26/52/9 

vt 2.56658 9.17323
vt 0.723691 9.17323
vn -2.65953e-016 -1 0
vt 0.723691 -1.22402e-014
vt 2.56658 -1.22402e-014
f 4/53/10 5/54/11 28/55/11 27/56/10 

vt -0.723691 9.17323
vt -2.56658 9.17323
vn 0.258819 -0.965926 0
vt -2.56658 -1.22402e-014
vt -0.723691 -1.22402e-014
f 5/57/11 6/58/12 29/59/12 28/60/11 

vt -3.90185 9.17323
vt -5.74475 9.17323
vn 0.5 -0.866025 9.24702e-033
vt -5.74475 -1.22402e-014
vt -3.90185 -1.22402e-014
f 6/61/12 9/62/13 30/63/13 29/64/12 

vt -6.75131 9.17323
vt -8.59421 9.17323
vn 0.707107 -0.707107 9.24702e-033
vt -8.59421 -1.22402e-014
vt -6.75131 -1.22402e-014
f 9/65/13 10/66/14 31/67/14 30/68/13 

vt -9.07789 9.17323
vt -9.28648 9.17323
vn 0.793353 -0.608761 0
vt -9.28648 -1.22402e-014
vt -9.07789 -1.22402e-014
f 10/69/14 11/70/15 32/71/15 31/72/14 

vt -5.11878 9.17323
vn 0 -1 0
vt -6.35386 9.17323
vt -6.35386 -1.22402e-014
vt -5.11878 -1.22402e-014
f 11/73/16 12/74/16 33/75/16 32/76/16 

vt 1.74044 9.17323
vn -0.757299 -0.653069 -1.61531e-032
vt -3.63166 9.17323
vt -3.63166 -1.22402e-014
vt 1.74044 -1.22402e-014
f 12/77/17 13/78/17 15/79/17 33/80/17 

vt 8.59421 9.17323
vn -0.707107 -0.707107 1.32578e-032
vt 6.75131 9.17323
vt 6.75131 -1.22402e-014
vt 8.59421 -1.22402e-014
f 39/81/18 40/82/9 26/83/9 25/84/18 

vt 9.28648 9.17323
vn -0.793353 -0.608761 1.48749e-032
vt 9.07789 9.17323
vt 9.07789 -1.22402e-014
vt 9.28648 -1.22402e-014
f 38/85/19 39/86/18 25/87/18 24/88/19 

vt 6.05055 9.17323
vt 5.11878 9.17323
vt 5.11878 -1.22402e-014
vt 6.05055 -1.22402e-014
f 37/89/16 38/90/16 24/91/16 23/92/16 

vt 9.70381 9.17323
vn 0.888919 0.458065 0
vt -7.46096 9.17323
vt -7.46096 -1.22402e-014
vt 9.70381 -1.22402e-014
f 17/93/20 36/94/20 22/95/20 18/96/20 

